<svg id="Capa_1" enable-background="new 0 0 513.134 513.134" height="512" viewBox="0 0 513.134 513.134" width="512" xmlns="http://www.w3.org/2000/svg"><g><path d="m468.077 496.567h-423.02c-22.3 0-36.81-23.44-26.83-43.36l209.72-418.97c11.8-23.559 45.44-23.561 57.24 0l209.72 418.97c9.98 19.92-4.53 43.36-26.83 43.36z" fill="#ecf7fe"/><path d="m468.077 496.567h-211.51v-480c11.36 0 22.72 5.89 28.62 17.67l209.72 418.97c9.98 19.92-4.53 43.36-26.83 43.36z" fill="#dce7f5"/><circle cx="256.567" cy="400.567" fill="#474f55" r="47"/><path d="m303.567 400.567c0 25.92-21.08 47-47 47v-94c25.92 0 47 21.08 47 47z" fill="#32393f"/><path d="m303.567 184.567v120c0 8.28-6.72 15-15 15h-64c-8.28 0-15-6.72-15-15v-120c0-8.28 6.72-15 15-15h64c8.28 0 15 6.72 15 15z" fill="#474f55"/><path d="m303.567 184.567v120c0 8.28-6.72 15-15 15h-32v-150h32c8.28 0 15 6.72 15 15z" fill="#32393f"/><path d="m508.327 446.497-209.72-418.98c-17.323-34.56-66.736-34.602-84.08 0l-209.72 418.98c-14.959 29.898 6.813 65.07 40.25 65.07h423.02c33.431 0 55.212-35.168 40.25-65.07zm-40.25 35.07h-423.02c-11.156 0-18.394-11.692-13.42-21.64l209.72-418.98c6.288-12.554 24.169-12.502 30.42 0l209.72 418.98c4.968 9.937-2.254 21.64-13.42 21.64z" fill="#fe3c51"/><path d="m468.077 511.567h-211.51v-30h211.51c11.156 0 18.394-11.692 13.42-21.64-223.941-447.39-209.973-422.177-215.96-425.87-2.61-1.61-5.68-2.49-8.97-2.49v-30c17.92 0 34.02 9.95 42.04 25.95l209.72 418.98c14.959 29.897-6.814 65.07-40.25 65.07z" fill="#c43b50"/></g></svg>